<svg height="512pt" viewBox="0 0 512 512" width="512pt" xmlns="http://www.w3.org/2000/svg"><path d="m503.464844 153.601562v110.933594h-494.929688l89.597656-128 5.972657-8.535156h48.898437l64 87.210938 1.535156 2.132812c.777344 1.09375 2.027344 1.757812 3.371094 1.792969 1.34375.035156 2.621094-.566407 3.457032-1.621094l52.734374-65.964844 8.617188-10.835937c.839844-1 2.085938-1.574219 3.390625-1.558594 1.308594.019531 2.539063.621094 3.351563 1.644531l49.75 64 2.902343 3.667969c.863281 1.097656 2.214844 1.703125 3.609375 1.617188 1.394532-.085938 2.660156-.847657 3.386719-2.042969l79.617187-130.304688 7.421876-12.203125c.777343-1.253906 2.152343-2.019531 3.628906-2.019531 1.476562 0 2.847656.765625 3.625 2.019531zm0 0" fill="#424242"/><path d="m486.398438 162.132812v102.402344h-477.863282l89.597656-128h37.804688l65.535156 89.34375c.777344 1.09375 2.027344 1.757813 3.371094 1.792969 1.34375.03125 2.621094-.570313 3.453125-1.625l8.707031-10.835937 52.648438-65.964844c.839844-1 2.085937-1.570313 3.390625-1.554688 1.308593.015625 2.539062.621094 3.351562 1.640625l1.707031 2.21875 50.945313 65.453125c.863281 1.097656 2.214844 1.699219 3.609375 1.617188 1.394531-.085938 2.660156-.851563 3.386719-2.046875l7.167969-11.773438 79.871093-130.730469c.777344-1.257812 2.152344-2.019531 3.628907-2.019531 1.476562 0 2.847656.761719 3.625 2.019531l2.390624 3.667969zm0 0" fill="#9e9e9e"/><path d="m273.066406 332.800781h-93.867187v102.398438h76.800781zm0 0" fill="#bfa885"/><path d="m51.199219 332.800781h128v102.398438h-128zm0 0" fill="#bfa885"/><path d="m51.199219 332.800781h102.402343v102.398438h-102.402343zm0 0" fill="#ffecb3"/><path d="m137.480469 230.398438h25.601562c2.355469 0 4.265625 1.910156 4.265625 4.269531v29.867187h-34.132812v-29.867187c0-2.359375 1.910156-4.269531 4.265625-4.269531zm0 0" fill="#805333"/><path d="m277.332031 341.332031h-118.527343l47.019531-62.207031 9.8125-12.96875c.742187-.871094 1.773437-1.449219 2.902343-1.621094 1.359376-.132812 2.699219.40625 3.582032 1.449219l58.371094 68.265625c1.097656 1.253906 1.367187 3.03125.691406 4.554688-.679688 1.523437-2.183594 2.511718-3.851563 2.527343zm0 0" fill="#4e342e"/><path d="m218.539062 264.535156c-1.128906.171875-2.160156.75-2.902343 1.621094l-56.832031 75.175781h-127.0625c-1.664063-.015625-3.167969-1.003906-3.847657-2.527343-.679687-1.523438-.410156-3.300782.691407-4.554688l61.953124-69.714844zm0 0" fill="#795548"/><path d="m349.867188 42.667969c0 18.851562-15.28125 34.132812-34.132813 34.132812-2.910156-.015625-5.804687-.390625-8.621094-1.109375l-2.730469-2.046875-18.175781-13.910156c-4.960937-8.535156-5.96875-18.808594-2.757812-28.144531 3.210937-9.339844 10.320312-16.820313 19.484375-20.496094 4.046875-1.722656 8.402344-2.59375 12.800781-2.558594 9.050781 0 17.734375 3.59375 24.136719 9.996094 6.398437 6.402344 9.996094 15.082031 9.996094 24.136719zm0 0" fill="#ffb301"/><path d="m324.265625 42.667969c.015625 13.328125-7.753906 25.4375-19.882813 30.976562l-18.175781-13.910156c-4.960937-8.535156-5.96875-18.808594-2.757812-28.144531 3.210937-9.339844 10.320312-16.820313 19.484375-20.496094 12.902344 5.164062 21.355468 17.671875 21.332031 31.574219zm0 0" fill="#ffeb3a"/><path d="m307.199219 76.800781c-.027344 9.414063-7.652344 17.039063-17.066407 17.066407h-68.265624c-9.414063.027343-17.039063 7.652343-17.066407 17.066406-.070312 9.394531-7.671875 16.996094-17.066406 17.066406h-93.867187c-9.414063-.027344-17.039063-7.652344-17.066407-17.066406.070313-9.398438 7.667969-16.996094 17.066407-17.066406h34.132812c9.414062-.027344 17.039062-7.652344 17.066406-17.066407.070313-9.398437 7.671875-16.996093 17.066406-17.066406h128c9.414063.027344 17.039063 7.652344 17.066407 17.066406zm0 0" fill="#9e9e9e"/><path d="m290.132812 59.734375c-.027343 9.414063-7.652343 17.039063-17.066406 17.066406h-68.265625c-9.414062.027344-17.039062 7.652344-17.066406 17.066407-.070313 9.394531-7.671875 16.996093-17.066406 17.066406h-93.867188c.070313-9.398438 7.667969-16.996094 17.066407-17.066406h34.132812c9.414062-.027344 17.039062-7.652344 17.066406-17.066407.070313-9.398437 7.671875-16.996093 17.066406-17.066406zm0 0" fill="#f5f5f5"/><path d="m366.933594 401.066406h85.332031v102.398438h-85.332031zm0 0" fill="#795548"/><path d="m366.933594 401.066406h59.734375v102.398438h-59.734375zm0 0" fill="#bfa885"/><path d="m238.933594 401.066406h128v102.398438h-128zm0 0" fill="#bfa885"/><path d="m238.933594 401.066406h102.398437v102.398438h-102.398437zm0 0" fill="#ffecb3"/><path d="m328.535156 290.132812h25.597656c2.355469 0 4.265626 1.910157 4.265626 4.265626v29.867187h-34.132813v-29.867187c0-2.355469 1.910156-4.265626 4.269531-4.265626zm0 0" fill="#805333"/><path d="m468.394531 401.066406h-118.527343l47.019531-62.207031 9.8125-12.972656c.742187-.871094 1.769531-1.445313 2.902343-1.621094 1.359376-.132813 2.699219.410156 3.582032 1.453125l58.367187 68.265625c1.101563 1.253906 1.371094 3.03125.691407 4.554687-.675782 1.519532-2.179688 2.507813-3.847657 2.527344zm0 0" fill="#4e342e"/><g fill="#795548"><path d="m409.601562 324.265625c-1.132812.175781-2.160156.75-2.902343 1.621094l-56.832031 75.179687h-127.0625c-1.667969-.019531-3.167969-1.007812-3.847657-2.527344-.679687-1.523437-.410156-3.300781.691407-4.554687l61.953124-69.71875zm0 0"/><path d="m253.183594 335.273438h-91.050782l47.019532-62.207032 47.1875 55.125c1.101562 1.253906 1.371094 3.03125.691406 4.554688-.675781 1.523437-2.179688 2.511718-3.847656 2.527344zm0 0"/><path d="m191.0625 264.535156c-1.132812.171875-2.160156.75-2.902344 1.621094l-56.832031 75.175781h-99.585937c-1.664063-.015625-3.167969-1.003906-3.847657-2.527343-.679687-1.523438-.410156-3.300782.691407-4.554688l61.953124-69.714844zm0 0"/><path d="m440.917969 401.066406h-91.050781l47.019531-62.207031 47.1875 55.125c1.101562 1.253906 1.371093 3.03125.691406 4.554687-.679687 1.519532-2.179687 2.507813-3.847656 2.527344zm0 0"/><path d="m382.121094 324.265625c-1.128906.175781-2.160156.75-2.898438 1.621094l-56.832031 75.179687h-99.585937c-1.667969-.019531-3.167969-1.007812-3.847657-2.527344-.679687-1.523437-.410156-3.300781.691407-4.554687l61.953124-69.71875zm0 0"/></g><path d="m409.601562 443.734375v-8.535156c0-4.710938-3.820312-8.53125-8.535156-8.53125-4.710937 0-8.53125 3.820312-8.53125 8.53125v8.535156c0 4.710937 3.820313 8.53125 8.53125 8.53125 4.714844 0 8.535156-3.820313 8.535156-8.53125zm0 0"/><path d="m324.265625 426.667969c-4.710937 0-8.53125 3.820312-8.53125 8.53125v8.535156c0 4.710937 3.820313 8.53125 8.53125 8.53125 4.714844 0 8.535156-3.820313 8.535156-8.53125v-8.535156c0-4.710938-3.820312-8.53125-8.535156-8.53125zm0 0"/><path d="m281.601562 426.667969c-4.714843 0-8.535156 3.820312-8.535156 8.53125v8.535156c0 4.710937 3.820313 8.53125 8.535156 8.53125 4.710938 0 8.53125-3.820313 8.53125-8.53125v-8.535156c0-4.710938-3.820312-8.53125-8.53125-8.53125zm0 0"/><path d="m136.535156 358.398438c-4.714844 0-8.535156 3.820312-8.535156 8.535156v8.53125c0 4.714844 3.820312 8.535156 8.535156 8.535156 4.710938 0 8.53125-3.820312 8.53125-8.535156v-8.53125c0-4.714844-3.820312-8.535156-8.53125-8.535156zm0 0"/><path d="m93.867188 358.398438c-4.714844 0-8.535157 3.820312-8.535157 8.535156v8.53125c0 4.714844 3.820313 8.535156 8.535157 8.535156 4.710937 0 8.53125-3.820312 8.53125-8.535156v-8.53125c0-4.714844-3.820313-8.535156-8.53125-8.535156zm0 0"/><path d="m170.667969 512c4.710937 0 8.53125-3.820312 8.53125-8.535156 0-4.710938-3.820313-8.53125-8.53125-8.53125h-8.535157c-4.710937 0-8.53125 3.820312-8.53125 8.53125 0 4.714844 3.820313 8.535156 8.53125 8.535156zm0 0"/><path d="m454.597656 60.910156c-2.339844-3.695312-6.414062-5.925781-10.789062-5.914062h-.136719c-4.414063.03125-8.496094 2.351562-10.785156 6.128906l-83.875 137.222656-48.816407-62.777344c-2.40625-3.117187-6.125-4.941406-10.0625-4.941406h-.085937c-3.890625-.011718-7.574219 1.761719-9.992187 4.8125l-57.933594 72.40625-52.308594-71.3125h17.921875c14.136719 0 25.597656-11.464844 25.597656-25.601562 0-4.714844 3.820313-8.535156 8.535157-8.535156h68.265624c10.851563-.03125 20.5-6.914063 24.054688-17.167969.511719 0 1.042969.101562 1.546875.101562 23.5625 0 42.664063-19.101562 42.664063-42.664062 0-23.566407-19.101563-42.667969-42.664063-42.667969-23.566406 0-42.667969 19.101562-42.667969 42.667969.027344 2.867187.355469 5.730469.972656 8.53125h-111.90625c-14.136718 0-25.597656 11.460937-25.597656 25.601562 0 4.710938-3.824218 8.53125-8.535156 8.53125h-34.132812c-12.957032.105469-23.792969 9.871094-25.238282 22.746094-1.445312 12.878906 6.960938 24.800781 19.570313 27.773437l-86.65625 123.792969c-1.820313 2.605469-2.042969 6.007813-.574219 8.828125 1.46875 2.820313 4.382812 4.59375 7.566406 4.59375h58.742188l-41.753906 46.933594c-3.371094 3.765625-4.207032 9.164062-2.136719 13.773438 2.070312 4.613281 6.65625 7.574218 11.710937 7.558593h7.570313v85.335938h-34.132813c-4.714844 0-8.535156 3.820312-8.535156 8.53125 0 4.714843 3.820312 8.535156 8.535156 8.535156h221.863282v51.199219h-25.597657c-4.714843 0-8.535156 3.820312-8.535156 8.53125 0 4.714844 3.820313 8.535156 8.535156 8.535156h298.664063c4.714844 0 8.535156-3.820312 8.535156-8.535156 0-4.710938-3.820312-8.53125-8.535156-8.53125h-42.664063v-85.332032h7.566407c5.011718 0 9.5625-2.925781 11.644531-7.480468 2.082031-4.558594 1.316406-9.914063-1.964844-13.699219l-58.453125-68.421875c-2.433594-2.722656-5.914062-4.273438-9.566406-4.265625h-43.09375v-21.335937c0-7.066407-5.730469-12.796876-12.800782-12.796876h-25.597656c-7.070312 0-12.800781 5.730469-12.800781 12.796876v21.335937h-29.363281l-37.914063-42.667969h255.007813c4.714844 0 8.535156-3.820312 8.535156-8.53125v-110.933594c-.003906-1.625-.464844-3.210937-1.332031-4.582031zm-138.863281-43.84375c14.136719 0 25.597656 11.460938 25.597656 25.601563 0 14.136719-11.460937 25.597656-25.597656 25.597656-.523437 0-1.101563-.179687-1.640625-.210937-3.457031-9.449219-12.148438-15.980469-22.183594-16.675782-1.109375-2.773437-1.710937-5.726562-1.777344-8.710937 0-14.140625 11.460938-25.601563 25.601563-25.601563zm-230.402344 93.867188c0-4.714844 3.820313-8.535156 8.535157-8.535156h34.132812c14.136719 0 25.601562-11.460938 25.601562-25.597657 0-4.714843 3.820313-8.535156 8.53125-8.535156h128c4.714844 0 8.535157 3.820313 8.535157 8.535156 0 4.710938-3.820313 8.53125-8.535157 8.53125h-68.265624c-14.140626 0-25.601563 11.460938-25.601563 25.601563 0 4.710937-3.820313 8.53125-8.53125 8.53125h-93.867187c-4.714844 0-8.535157-3.820313-8.535157-8.53125zm12.367188 153.601562h106.714843l-46.453124 59.730469h-113.355469zm64.433593-17.070312h-17.066406v-17.066406h17.066406zm60.175782 21.871094 48.34375 54.402343-.46875.527344h-90.609375zm-162.574219 71.996093h110.933594v85.335938h-110.933594zm128 85.335938v-85.335938h67.277344l-41.753907 46.933594c-3.371093 3.769531-4.207031 9.164063-2.136718 13.777344 2.066406 4.609375 6.65625 7.570312 11.710937 7.558593h7.566407v17.066407zm59.730469 0v-17.066407h110.933594v85.332032h-110.933594zm128-17.066407h68.269531v85.332032h-17.066406v-25.601563c0-4.710937-3.820313-8.53125-8.535157-8.53125-4.710937 0-8.53125 3.820313-8.53125 8.53125v25.601563h-34.136718zm34.765625-74.242187 48.863281 57.175781h-92.082031zm-64.628907 57.175781h-113.265624l53.09375-59.734375h105.328124zm-12.800781-93.867187h17.066407v17.066406h-17.066407zm162.132813-42.667969h-261.648438l-3.753906-4.265625c-.242188-.265625-.488281-.53125-.734375-.769531-.488281-.644532-1.0625-1.21875-1.707031-1.707032-1.734375-1.34375-3.917969-1.972656-6.101563-1.75-.351562 0-.707031 0-1.058593 0h-40.730469v-21.375c0-7.070312-5.730469-12.800781-12.800781-12.800781h-25.597657c-7.070312 0-12.800781 5.730469-12.800781 12.800781v21.332032h-32.214844c-3.648437-.003906-7.128906 1.546875-9.5625 4.269531l-3.773437 4.265625h-57.523438l83.625-119.464844h40.109375l63.019532 85.886719c2.34375 3.222656 6.0625 5.160156 10.050781 5.230469 3.988281.140625 7.796875-1.648438 10.238281-4.804688l58.027344-72.53125 49.304687 63.382813c2.585938 3.332031 6.644531 5.175781 10.851563 4.929687 4.210937-.242187 8.027344-2.542968 10.210937-6.148437l83.523438-136.617188 51.046875 80.21875zm0 0"/></svg>